<?xml version="1.0" encoding="iso-8859-1"?>
<!-- Generator: Adobe Illustrator 18.0.0, SVG Export Plug-In . SVG Version: 6.00 Build 0)  -->
<!DOCTYPE svg PUBLIC "-//W3C//DTD SVG 1.1//EN" "http://www.w3.org/Graphics/SVG/1.1/DTD/svg11.dtd">
<svg xmlns="http://www.w3.org/2000/svg" xmlns:xlink="http://www.w3.org/1999/xlink" version="1.1" id="Capa_1" x="0px" y="0px" viewBox="0 0 60 60" style="enable-background:new 0 0 60 60;" xml:space="preserve" width="512px" height="512px" stroke-width="2" stroke="#6C7A89">
<g>
	<path d="M12,17h15c0.553,0,1-0.448,1-1s-0.447-1-1-1H12c-0.553,0-1,0.448-1,1S11.447,17,12,17z" fill="#6C7A89" stroke-width="2" stroke="#6C7A89"/>
	<path d="M46,23H12c-0.553,0-1,0.448-1,1s0.447,1,1,1h34c0.553,0,1-0.448,1-1S46.553,23,46,23z" fill="#6C7A89" stroke-width="2" stroke="#6C7A89"/>
	<path d="M46,31H12c-0.553,0-1,0.448-1,1s0.447,1,1,1h34c0.553,0,1-0.448,1-1S46.553,31,46,31z" fill="#6C7A89" stroke-width="2" stroke="#6C7A89"/>
	<path d="M54,2H6C2.748,2,0,4.748,0,8v33c0,3.252,2.748,6,6,6h28.558l9.702,10.673C44.453,57.885,44.724,58,45,58   c0.121,0,0.243-0.022,0.36-0.067C45.746,57.784,46,57.413,46,57V47h8c3.252,0,6-2.748,6-6V8C60,4.748,57.252,2,54,2z M58,41   c0,2.168-1.832,4-4,4h-9c-0.553,0-1,0.448-1,1v8.414l-8.26-9.086l0,0l-4.982-5.792c-0.359-0.417-0.99-0.464-1.41-0.106   c-0.419,0.36-0.466,0.992-0.105,1.41L32.821,45H6c-2.168,0-4-1.832-4-4V8c0-2.168,1.832-4,4-4h48c2.168,0,4,1.832,4,4V41z" fill="#6C7A89" stroke-width="2" stroke="#6C7A89"/>
</g>
</svg>
